<svg width="151" height="148" viewBox="0 0 151 148" fill="none" xmlns="http://www.w3.org/2000/svg">
<path d="M0 20C0 8.9543 8.95431 0 20 0H131C142.046 0 151 8.95431 151 20V128C151 139.046 142.046 148 131 148H20C8.95431 148 0 139.046 0 128V20Z" fill="#0BA28E"/>
<path d="M36.1328 62.8434L61.1471 39.4475V83.7621L36.1328 104.681V62.8434Z" fill="white" fill-opacity="0.93"/>
<path d="M85.1807 62.8434L61.1473 39.4475V83.7621L85.1807 104.681V62.8434Z" fill="white" fill-opacity="0.79"/>
<path d="M85.1807 62.8434L101.366 39.4475V83.7621L85.1807 104.681V62.8434Z" fill="white" fill-opacity="0.62"/>
<path d="M103.328 40.9781L106.761 33.0713V75.7765L103.328 82.6094V40.9781Z" fill="white" fill-opacity="0.62"/>
<path fill-rule="evenodd" clip-rule="evenodd" d="M44.6446 81.89C43.8694 81.4507 42.9734 81.2 42.0189 81.2C39.0734 81.2 36.6855 83.5878 36.6855 86.5333C36.6855 89.4788 39.0734 91.8666 42.0189 91.8666C44.9644 91.8666 47.3522 89.4788 47.3522 86.5333C47.3522 85.2646 46.9093 84.0995 46.1696 83.184L61.9102 64.6181L60.3847 63.3247L44.6446 81.89Z" fill="#29A796"/>
<path fill-rule="evenodd" clip-rule="evenodd" d="M65.6385 67.4492C66.4393 66.2442 66.7498 64.7194 66.3719 63.205C65.6588 60.3471 62.7639 58.6084 59.906 59.3216C57.0481 60.0347 55.3095 62.9296 56.0226 65.7875C56.7358 68.6454 59.6307 70.384 62.4885 69.6709C63.1345 69.5097 63.7233 69.237 64.2396 68.8785L84.4808 88.7188L85.8808 87.2906L65.6385 67.4492Z" fill="#29A796"/>
<path fill-rule="evenodd" clip-rule="evenodd" d="M86.3428 82.9824C85.4578 82.6753 84.4805 82.5974 83.4971 82.805C80.6151 83.4134 78.772 86.243 79.3804 89.125C79.9888 92.007 82.8184 93.8501 85.7004 93.2417C88.5824 92.6333 90.4255 89.8037 89.8171 86.9217C89.5655 85.7301 88.9342 84.7161 88.0765 83.9795L99.2904 64.4696L97.5564 63.473L86.3428 82.9824Z" fill="#29A796"/>
<path d="M98.6093 62.9261C98.6093 62.9334 98.6227 62.948 98.6227 62.948C98.6227 62.948 110.381 43.3181 110.381 36.8673C110.381 27.3734 104.421 23.2431 98.6093 23.2285C92.7974 23.2431 86.8379 27.3734 86.8379 36.8673C86.8379 43.3181 98.6026 62.948 98.6026 62.948L98.6093 62.9261ZM94.5356 36.3273C94.5356 33.8753 96.3611 31.8905 98.616 31.8905C100.871 31.8905 102.696 33.8753 102.696 36.3273C102.696 38.7792 100.864 40.764 98.6093 40.764C96.3611 40.764 94.5356 38.7792 94.5356 36.3273Z" fill="#F18383"/>
<path d="M71.0906 122.188C70.9713 121.773 70.8037 121.406 70.5878 121.088C70.3719 120.764 70.1077 120.492 69.7952 120.27C69.4884 120.043 69.1361 119.869 68.7384 119.75C68.3463 119.631 67.9117 119.571 67.4344 119.571C66.5423 119.571 65.7583 119.793 65.0821 120.236C64.4117 120.679 63.8889 121.324 63.5139 122.171C63.1389 123.011 62.9514 124.04 62.9514 125.256C62.9514 126.472 63.1361 127.506 63.5054 128.358C63.8747 129.21 64.3975 129.861 65.0736 130.31C65.7497 130.753 66.548 130.974 67.4685 130.974C68.3037 130.974 69.0168 130.827 69.6077 130.531C70.2043 130.23 70.6588 129.807 70.9713 129.261C71.2895 128.716 71.4486 128.071 71.4486 127.327L72.1986 127.438H67.6986V124.659H75.0026V126.858C75.0026 128.392 74.6787 129.71 74.031 130.813C73.3833 131.909 72.4912 132.756 71.3548 133.352C70.2185 133.943 68.9173 134.239 67.4514 134.239C65.8151 134.239 64.3776 133.878 63.1389 133.156C61.9003 132.429 60.9344 131.398 60.2412 130.063C59.5537 128.722 59.21 127.131 59.21 125.29C59.21 123.875 59.4145 122.614 59.8236 121.506C60.2384 120.392 60.8179 119.449 61.5622 118.676C62.3066 117.903 63.173 117.315 64.1617 116.912C65.1503 116.509 66.2213 116.307 67.3747 116.307C68.3634 116.307 69.2838 116.452 70.1361 116.742C70.9884 117.026 71.7441 117.429 72.4031 117.952C73.0679 118.474 73.6105 119.097 74.031 119.818C74.4514 120.534 74.7213 121.324 74.8406 122.188H71.0906Z" fill="white"/>
<path d="M88.5558 116.546H92.2462V127.881C92.2462 129.153 91.9422 130.267 91.3343 131.222C90.732 132.176 89.8882 132.921 88.803 133.455C87.7178 133.983 86.4536 134.247 85.0104 134.247C83.5615 134.247 82.2945 133.983 81.2092 133.455C80.124 132.921 79.2803 132.176 78.678 131.222C78.0757 130.267 77.7746 129.153 77.7746 127.881V116.546H81.4649V127.565C81.4649 128.23 81.6098 128.821 81.8996 129.338C82.195 129.855 82.6098 130.261 83.1439 130.557C83.678 130.852 84.3002 131 85.0104 131C85.7263 131 86.3485 130.852 86.8769 130.557C87.411 130.261 87.8229 129.855 88.1127 129.338C88.4081 128.821 88.5558 128.23 88.5558 127.565V116.546Z" fill="white"/>
<path d="M98.9727 116.546V134H95.2824V116.546H98.9727Z" fill="white"/>
<path d="M108.196 134H102.009V116.546H108.248C110.003 116.546 111.515 116.895 112.782 117.594C114.049 118.287 115.023 119.284 115.705 120.585C116.392 121.886 116.736 123.443 116.736 125.256C116.736 127.074 116.392 128.636 115.705 129.943C115.023 131.25 114.043 132.253 112.765 132.952C111.492 133.651 109.969 134 108.196 134ZM105.699 130.838H108.043C109.134 130.838 110.052 130.645 110.796 130.259C111.546 129.867 112.108 129.261 112.483 128.443C112.864 127.619 113.054 126.557 113.054 125.256C113.054 123.966 112.864 122.912 112.483 122.094C112.108 121.276 111.549 120.673 110.804 120.287C110.06 119.901 109.142 119.707 108.052 119.707H105.699V130.838Z" fill="white"/>
<path d="M119.47 134V116.546H131.231V119.588H123.16V123.747H130.626V126.79H123.16V130.957H131.265V134H119.47Z" fill="white"/>
<path d="M33.9173 20.6563H30.1844C30.1162 20.1734 29.977 19.7444 29.7668 19.3694C29.5566 18.9887 29.2867 18.6648 28.9571 18.3978C28.6276 18.1307 28.2469 17.9262 27.8151 17.7842C27.3889 17.6421 26.9259 17.5711 26.4259 17.5711C25.5225 17.5711 24.7355 17.7955 24.0651 18.2444C23.3946 18.6876 22.8747 19.3353 22.5054 20.1876C22.1361 21.0342 21.9514 22.0626 21.9514 23.2728C21.9514 24.5171 22.1361 25.5626 22.5054 26.4092C22.8804 27.2557 23.4031 27.895 24.0736 28.3268C24.7441 28.7586 25.5196 28.9745 26.4003 28.9745C26.8946 28.9745 27.352 28.9092 27.7725 28.7785C28.1986 28.6478 28.5764 28.4575 28.906 28.2075C29.2355 27.9518 29.5083 27.6421 29.7242 27.2785C29.9458 26.9148 30.0992 26.5001 30.1844 26.0342L33.9173 26.0512C33.8208 26.8523 33.5793 27.6251 33.1929 28.3694C32.8122 29.108 32.298 29.77 31.6503 30.3552C31.0083 30.9347 30.2412 31.395 29.3492 31.7359C28.4628 32.0711 27.46 32.2387 26.3406 32.2387C24.7838 32.2387 23.3918 31.8864 22.1645 31.1819C20.9429 30.4773 19.977 29.4575 19.2668 28.1222C18.5622 26.787 18.21 25.1705 18.21 23.2728C18.21 21.3694 18.5679 19.7501 19.2838 18.4148C19.9997 17.0796 20.9713 16.0626 22.1986 15.3637C23.4259 14.6592 24.8066 14.3069 26.3406 14.3069C27.352 14.3069 28.2895 14.4489 29.1531 14.733C30.0225 15.0171 30.7923 15.4319 31.4628 15.9773C32.1333 16.5171 32.6787 17.179 33.0992 17.9631C33.5253 18.7472 33.798 19.645 33.9173 20.6563Z" fill="white"/>
<path d="M40.254 14.5455V32.0001H36.5637V14.5455H40.254Z" fill="white"/>
<path d="M42.6254 17.5881V14.5455H56.9607V17.5881H51.6169V32.0001H47.9692V17.5881H42.6254Z" fill="white"/>
<path d="M58.2987 14.5455H62.4323L66.4124 22.0626H66.5828L70.5629 14.5455H74.6965L68.33 25.8296V32.0001H64.6652V25.8296L58.2987 14.5455Z" fill="white"/>
</svg>
