<svg width="37" height="36" viewBox="0 0 57 56" fill="none" xmlns="http://www.w3.org/2000/svg">
<g clip-path="url(#clip0_433_28)">
<path d="M27.2357 35.0335C27.5971 35.3457 28.0483 35.5022 28.4999 35.5022C28.9515 35.5022 29.4028 35.3457 29.764 35.0335C30.2218 34.6374 40.9704 25.2248 40.9704 15.463C40.9704 8.70493 35.3764 3.20673 28.5001 3.20673C21.6236 3.20673 16.0293 8.70493 16.0293 15.463C16.0289 25.2248 26.778 34.6374 27.2357 35.0335ZM28.4999 12.2607C30.2851 12.2607 31.7328 13.694 31.7328 15.463C31.7328 17.2319 30.2851 18.6654 28.4999 18.6654C26.7141 18.6654 25.2666 17.2317 25.2666 15.463C25.2666 13.694 26.7141 12.2607 28.4999 12.2607Z" fill="#032425"/>
<path d="M52.4629 35.028L51.0184 30.0546C50.7838 29.2474 50.0332 28.6909 49.1792 28.6909H38.8695C38.4967 29.2353 38.1035 29.7817 37.6876 30.3312C34.7979 34.1456 31.8602 36.7257 31.5345 37.0078C30.6958 37.7334 29.6185 38.1329 28.5006 38.1329C27.3834 38.1329 26.3062 37.7338 25.4663 37.0074C25.141 36.7257 22.2029 34.1452 19.3134 30.3312C18.8975 29.7817 18.5043 29.2351 18.1316 28.6909H7.82162C6.96758 28.6909 6.21698 29.2474 5.98246 30.0546L4.26074 35.9819L42.7462 42.9075L52.4629 35.028Z" fill="#032425"/>
<path d="M56.9269 50.3985L53.2363 37.6908L34.9248 52.7935H55.0879C55.688 52.7935 56.2532 52.5169 56.6146 52.0462C56.976 51.5754 57.0914 50.9653 56.9269 50.3985Z" fill="#032425"/>
<path d="M9.36422 39.575L3.52218 38.5236L0.0733839 50.3985C-0.0910914 50.9653 0.0242524 51.5754 0.385829 52.0461C0.747214 52.5167 1.31242 52.7933 1.91255 52.7933H9.36422V39.575Z" fill="#032425"/>
<path d="M12.042 40.0571V52.7933H30.7594L40.0836 45.1032L12.042 40.0571Z" fill="#032425"/>
</g>
<defs>
<clipPath id="clip0_433_28">
<rect width="57" height="56" fill="white"/>
</clipPath>
</defs>
</svg>
