<svg width="134" height="134" viewBox="0 0 134 134" fill="none" xmlns="http://www.w3.org/2000/svg">
<path fill-rule="evenodd" clip-rule="evenodd" d="M104 10H30C18.9543 10 10 18.9543 10 30V104C10 115.046 18.9543 124 30 124H104C115.046 124 124 115.046 124 104V30C124 18.9543 115.046 10 104 10ZM30 0C13.4315 0 0 13.4315 0 30V104C0 120.569 13.4315 134 30 134H104C120.569 134 134 120.569 134 104V30C134 13.4315 120.569 0 104 0H30Z" fill="white"/>
<path fill-rule="evenodd" clip-rule="evenodd" d="M66.5 96C81.6878 96 94 83.6878 94 68.5C94 53.3122 81.6878 41 66.5 41C51.3122 41 39 53.3122 39 68.5C39 83.6878 51.3122 96 66.5 96ZM66.5 106C87.2107 106 104 89.2107 104 68.5C104 47.7893 87.2107 31 66.5 31C45.7893 31 29 47.7893 29 68.5C29 89.2107 45.7893 106 66.5 106Z" fill="white"/>
<path d="M114 29C114 34.5228 109.523 39 104 39C98.4772 39 94 34.5228 94 29C94 23.4772 98.4772 19 104 19C109.523 19 114 23.4772 114 29Z" fill="white"/>
</svg>
